<svg xmlns="http://www.w3.org/2000/svg" width="442.336" height="269.739" viewBox="0 0 442.336 269.739">
  <g id="Groupe_97" data-name="Groupe 97" transform="translate(-1089.041 -259.754)">
    <path id="Tracé_105" data-name="Tracé 105" d="M112.845,70h-5.3V39.468q0-3.618.444-8.855h-.127a28.31,28.31,0,0,1-1.365,4.412L90.946,70h-2.6L72.823,35.278a27.2,27.2,0,0,1-1.365-4.666h-.127q.254,2.729.254,8.918V70H66.444V24.487H73.49L87.454,56.226a40.638,40.638,0,0,1,2.095,5.459h.19Q91.1,57.939,91.93,56.1l14.25-31.611h6.665Zm47.195,0h-5.9l-4.824-12.759h-19.3L125.477,70h-5.935L137,24.487h5.522ZM147.567,52.449l-7.141-19.392a18.568,18.568,0,0,1-.7-3.047H139.6a17,17,0,0,1-.73,3.047l-7.078,19.392ZM199.364,70h-6.348L185.4,57.241a27.788,27.788,0,0,0-2.031-3.031,11.579,11.579,0,0,0-2.015-2.047A6.981,6.981,0,0,0,179.13,51a9.136,9.136,0,0,0-2.682-.365h-4.38V70h-5.332V24.487h13.584a19.359,19.359,0,0,1,5.507.746,12.321,12.321,0,0,1,4.38,2.269,10.545,10.545,0,0,1,2.9,3.793,12.577,12.577,0,0,1,1.047,5.316,12.8,12.8,0,0,1-.714,4.364,11.4,11.4,0,0,1-2.031,3.539,12.313,12.313,0,0,1-3.174,2.65,16.2,16.2,0,0,1-4.174,1.7v.127a9.6,9.6,0,0,1,1.984,1.158,10.916,10.916,0,0,1,1.6,1.539A20.39,20.39,0,0,1,189.16,53.7q.746,1.127,1.666,2.618ZM172.069,29.312v16.5H179.3a10.975,10.975,0,0,0,3.7-.6,8.56,8.56,0,0,0,2.936-1.73,7.844,7.844,0,0,0,1.936-2.761,9.244,9.244,0,0,0,.7-3.666,7.135,7.135,0,0,0-2.365-5.7q-2.365-2.047-6.84-2.047Zm57.542,0h-13.14V70h-5.332V29.312H198.031V24.487h31.58ZM270.965,70h-5.332V49.243h-23.55V70h-5.332V24.487h5.332V44.451h23.55V24.487h5.332Zm36.055,0H282.9V24.487H306v4.824H288.231V44.451h16.44v4.792h-16.44V65.176H307.02Zm44.91.762q-9.68,0-15.5-6.379t-5.824-16.6q0-10.981,5.935-17.52t16.155-6.538q9.426,0,15.187,6.348t5.76,16.6q0,11.14-5.9,17.615T351.93,70.762Zm.381-42.212a14.673,14.673,0,0,0-11.648,5.173q-4.475,5.173-4.475,13.584t4.364,13.536a14.233,14.233,0,0,0,11.378,5.126q7.49,0,11.807-4.888T368.053,47.4q0-9.014-4.189-13.933T352.31,28.55ZM382.589,70V24.487h12.949q5.9,0,9.363,2.888A9.334,9.334,0,0,1,408.36,34.9a11.068,11.068,0,0,1-2.095,6.729,11.3,11.3,0,0,1-5.776,4.063v.127a11.579,11.579,0,0,1,7.363,3.475,10.689,10.689,0,0,1,2.761,7.633,11.9,11.9,0,0,1-4.189,9.458A15.593,15.593,0,0,1,395.855,70Zm5.332-40.688V44.006h5.459a10.366,10.366,0,0,0,6.887-2.111,7.35,7.35,0,0,0,2.507-5.951q0-6.633-8.728-6.633Zm0,19.487V65.176h7.236q4.7,0,7.284-2.222a7.61,7.61,0,0,0,2.587-6.094q0-8.062-10.981-8.062ZM443.971,70H419.849V24.487h23.105v4.824H425.181V44.451h16.44v4.792h-16.44V65.176h18.789Zm32.373,0H452.73V24.487h5.332V65.176h18.281Zm4.856-1.841V61.875a12.2,12.2,0,0,0,2.587,1.714,20.956,20.956,0,0,0,3.174,1.285,25.265,25.265,0,0,0,3.348.809,18.669,18.669,0,0,0,3.11.286q4.919,0,7.347-1.825a6.845,6.845,0,0,0,1.619-8.458,9.117,9.117,0,0,0-2.238-2.491,22.2,22.2,0,0,0-3.38-2.158q-1.952-1.031-4.205-2.174-2.38-1.206-4.443-2.444a19.254,19.254,0,0,1-3.586-2.729,11.386,11.386,0,0,1-2.4-3.38,10.462,10.462,0,0,1-.873-4.427,10.411,10.411,0,0,1,1.365-5.411,11.706,11.706,0,0,1,3.586-3.793,16.259,16.259,0,0,1,5.062-2.222,23.179,23.179,0,0,1,5.792-.73q6.729,0,9.807,1.619v6a17.777,17.777,0,0,0-10.347-2.793,17.017,17.017,0,0,0-3.491.365,9.862,9.862,0,0,0-3.11,1.19,6.89,6.89,0,0,0-2.222,2.126,5.644,5.644,0,0,0-.857,3.174,6.534,6.534,0,0,0,.651,3.015,7.39,7.39,0,0,0,1.92,2.317,19.124,19.124,0,0,0,3.094,2.031q1.825.984,4.205,2.158,2.444,1.206,4.634,2.539a21.18,21.18,0,0,1,3.84,2.952A13.117,13.117,0,0,1,507.812,54a10.082,10.082,0,0,1,.968,4.507,11.429,11.429,0,0,1-1.317,5.7A10.81,10.81,0,0,1,503.908,68a15.525,15.525,0,0,1-5.157,2.111,28.246,28.246,0,0,1-6.157.651,25.092,25.092,0,0,1-2.666-.175q-1.587-.175-3.237-.508a26.416,26.416,0,0,1-3.126-.825A9.728,9.728,0,0,1,481.2,68.159Z" transform="translate(1022.597 423.869)" fill="#fff"/>
    <g id="Groupe_96" data-name="Groupe 96">
      <path id="Tracé_69" data-name="Tracé 69" d="M1285.169,295.236a33.392,33.392,0,1,0,47.248.025" fill="none" stroke="#fff" stroke-miterlimit="10" stroke-width="4.855"/>
      <path id="Tracé_70" data-name="Tracé 70" d="M1357.562,262.182H1343.3l-34.4,35.4-34.618-35.4H1260" fill="none" stroke="#fff" stroke-linecap="round" stroke-linejoin="round" stroke-width="4.855"/>
      <g id="Groupe_95" data-name="Groupe 95">
        <path id="Tracé_71" data-name="Tracé 71" d="M1344.253,283.946l-33.743,34.716a2.25,2.25,0,0,1-1.611.681h0a2.257,2.257,0,0,1-1.609-.677l-33.956-34.72h-.054a49.532,49.532,0,1,0,71.007,0Z" fill="none" stroke="#fff" stroke-miterlimit="10" stroke-width="4.855"/>
      </g>
    </g>
    <path id="Tracé_106" data-name="Tracé 106" d="M-50.769-7.939V0h-2.461V-21.006h5.771a7.618,7.618,0,0,1,5.222,1.641,5.858,5.858,0,0,1,1.853,4.629,6.366,6.366,0,0,1-2.058,4.893A7.864,7.864,0,0,1-48-7.939Zm0-10.84v8.613h2.578A5.764,5.764,0,0,0-44.3-11.331a4.123,4.123,0,0,0,1.34-3.289q0-4.16-4.922-4.16ZM-13.219,0h-2.725L-18.17-5.889h-8.906L-29.171,0H-31.91l8.057-21.006H-21.3Zm-5.757-8.1-3.3-8.95a8.57,8.57,0,0,1-.322-1.406h-.059a7.846,7.846,0,0,1-.337,1.406L-26.256-8.1ZM13.931,0H11L7.485-5.889a12.825,12.825,0,0,0-.937-1.4,5.344,5.344,0,0,0-.93-.945,3.222,3.222,0,0,0-1.025-.535,4.216,4.216,0,0,0-1.238-.168H1.333V0H-1.128V-21.006h6.27a8.935,8.935,0,0,1,2.542.344A5.686,5.686,0,0,1,9.7-19.614a4.867,4.867,0,0,1,1.34,1.75,5.8,5.8,0,0,1,.483,2.454A5.908,5.908,0,0,1,11.2-13.4a5.26,5.26,0,0,1-.937,1.633A5.683,5.683,0,0,1,8.8-10.54a7.478,7.478,0,0,1-1.926.784V-9.7a4.43,4.43,0,0,1,.916.535,5.038,5.038,0,0,1,.74.71,9.41,9.41,0,0,1,.7.93q.344.52.769,1.208ZM1.333-18.779v7.617h3.34a5.065,5.065,0,0,0,1.707-.278,3.951,3.951,0,0,0,1.355-.8,3.62,3.62,0,0,0,.894-1.274,4.266,4.266,0,0,0,.322-1.692,3.293,3.293,0,0,0-1.091-2.629A4.688,4.688,0,0,0,4.7-18.779ZM28.277,0H25.816V-21.006h2.461ZM41.818-.85v-2.9a5.633,5.633,0,0,0,1.194.791,9.672,9.672,0,0,0,1.465.593,11.661,11.661,0,0,0,1.545.374,8.616,8.616,0,0,0,1.436.132A5.623,5.623,0,0,0,50.849-2.7,2.849,2.849,0,0,0,51.97-5.127,2.847,2.847,0,0,0,51.6-6.606a4.208,4.208,0,0,0-1.033-1.15,10.248,10.248,0,0,0-1.56-1q-.9-.476-1.941-1-1.1-.557-2.051-1.128a8.887,8.887,0,0,1-1.655-1.26A5.255,5.255,0,0,1,42.25-13.7a4.829,4.829,0,0,1-.4-2.043,4.805,4.805,0,0,1,.63-2.5A5.4,5.4,0,0,1,44.133-20a7.5,7.5,0,0,1,2.336-1.025,10.7,10.7,0,0,1,2.673-.337,10.245,10.245,0,0,1,4.526.747v2.769a8.2,8.2,0,0,0-4.775-1.289,7.854,7.854,0,0,0-1.611.168,4.552,4.552,0,0,0-1.436.549,3.18,3.18,0,0,0-1.025.981,2.605,2.605,0,0,0-.4,1.465,3.016,3.016,0,0,0,.3,1.392,3.411,3.411,0,0,0,.886,1.069,8.827,8.827,0,0,0,1.428.938q.842.454,1.941,1,1.128.557,2.139,1.172a9.775,9.775,0,0,1,1.772,1.362A6.054,6.054,0,0,1,54.1-7.383a4.653,4.653,0,0,1,.447,2.08,5.275,5.275,0,0,1-.608,2.629A4.989,4.989,0,0,1,52.3-.923a7.165,7.165,0,0,1-2.38.974,13.036,13.036,0,0,1-2.842.3,11.58,11.58,0,0,1-1.23-.081Q45.114.19,44.353.037A12.192,12.192,0,0,1,42.91-.344,4.49,4.49,0,0,1,41.818-.85Z" transform="translate(1304.281 529.142)" fill="#fff"/>
  </g>
</svg>
