<svg xmlns="http://www.w3.org/2000/svg" width="21.731" height="21.789" viewBox="0 0 21.731 21.789">
  <g id="Groupe_28" data-name="Groupe 28" transform="translate(0)">
    <path id="Tracé_34" data-name="Tracé 34" d="M789.117,124.365a6.508,6.508,0,0,0-3.3-1.553H774.148a6.487,6.487,0,0,0-3.355,1.242,6.412,6.412,0,0,0-1.858,3.473v12.366a5.985,5.985,0,0,0,1.549,3.156,6.143,6.143,0,0,0,3.458,1.552H785.71a5.374,5.374,0,0,0,4.955-4.76v-11.9A5.779,5.779,0,0,0,789.117,124.365Zm-.468,4.605v9.776a4.958,4.958,0,0,1-1.118,2.791,5.131,5.131,0,0,1-2.954,1.12h-9.669a4.692,4.692,0,0,1-3-1.12,4.389,4.389,0,0,1-1.117-2.748V128.63a3.83,3.83,0,0,1,4.283-3.874h9.584a4.833,4.833,0,0,1,2.869,1.121A4.437,4.437,0,0,1,788.649,128.97Z" transform="translate(-768.934 -122.812)" fill="#2e00d0"/>
    <path id="Tracé_35" data-name="Tracé 35" d="M791.029,140.117a5.048,5.048,0,1,0-5.048,5.048A5.048,5.048,0,0,0,791.029,140.117Zm-5.048,3.073a3.073,3.073,0,1,1,3.073-3.073A3.073,3.073,0,0,1,785.981,143.19Z" transform="translate(-775.147 -129.159)" fill="#2e00d0"/>
    <path id="Tracé_36" data-name="Tracé 36" d="M803.469,132.245a1.1,1.1,0,1,1-1.1-1.1A1.1,1.1,0,0,1,803.469,132.245Z" transform="translate(-785.679 -127.128)" fill="#2e00d0"/>
  </g>
</svg>
